<svg width="30" height="30" viewBox="0 0 30 30" fill="none" xmlns="http://www.w3.org/2000/svg">
<path d="M6.66667 0C2.985 0 0 2.985 0 6.66667V21.6667V23.3333C0 27.015 2.985 30 6.66667 30H23.3333C27.015 30 30 27.015 30 23.3333V21.6667V6.66667C30 2.985 27.015 0 23.3333 0H6.66667ZM6.66667 3.33333H23.3333C25.175 3.33333 26.6667 4.825 26.6667 6.66667L26.6733 16.9933C25.3767 15.79 24.055 15.0367 22.6034 15C22.5517 14.9983 22.5533 15 22.5 15C20.605 15 18.4983 16.4567 17.0833 18.2817C16.7217 17.465 16.3567 16.6583 15.9367 15.885C13.97 12.2533 11.8217 10.005 9.16667 10C6.91 9.995 4.97334 11.84 3.32001 14.3667L3.33333 6.66667C3.33333 4.825 4.825 3.33333 6.66667 3.33333ZM21.6667 6.66667C20.7467 6.66667 20 7.41333 20 8.33333C20 9.25333 20.7467 10 21.6667 10C22.5867 10 23.3333 9.25333 23.3333 8.33333C23.3333 7.41333 22.5867 6.66667 21.6667 6.66667ZM9.16667 13.3333C10.1367 13.335 11.61 14.845 13.02 17.4483C13.58 18.4783 14.0817 19.6133 14.5317 20.73C14.8017 21.3966 15.01 21.9067 15.1034 22.1867C15.5584 23.5484 17.405 23.7417 18.125 22.5C18.1967 22.3767 18.3267 22.14 18.5417 21.8233C18.9017 21.29 19.3117 20.75 19.74 20.26C20.81 19.0333 21.8417 18.3333 22.5 18.3333C23.165 18.35 24.1917 19.0483 25.26 20.26C25.6933 20.7517 26.0933 21.29 26.4583 21.8233C26.5733 21.99 26.59 22.0684 26.6667 22.1867V23.3333C26.6667 25.175 25.175 26.6667 23.3333 26.6667H6.66667C4.825 26.6667 3.33333 25.175 3.33333 23.3333V21.9267C3.43833 21.63 3.57834 21.2783 3.80168 20.73C4.25668 19.6133 4.74998 18.48 5.31331 17.4483C6.73498 14.84 8.19833 13.3317 9.16667 13.3333Z" fill="#02B2EE"/>
</svg>
