<svg width="25" height="34" viewBox="0 0 25 34" fill="none" xmlns="http://www.w3.org/2000/svg">
<path d="M12.5 0C5.59643 0 0 5.3278 0 11.9C0 15.2303 0.973214 17.2142 3.125 19.6027C3.225 19.7149 3.59466 20.1416 3.68216 20.2402C4.95181 21.6495 5.35714 22.4179 5.35714 23.8V27.2C5.35714 30.9553 8.55536 34 12.5 34C16.4446 34 19.6429 30.9553 19.6429 27.2V23.8C19.6429 22.4179 20.0482 21.6495 21.3178 20.2402C21.4053 20.1416 21.775 19.7149 21.875 19.6027C24.0268 17.2142 25 15.2303 25 11.9C25 5.3278 19.4036 0 12.5 0ZM12.5 3.4C17.4304 3.4 21.4286 7.2063 21.4286 11.9C21.4286 14.3072 20.8393 15.5465 19.1964 17.3723C19.1036 17.4743 18.6786 17.9027 18.5822 18.0098C17.3089 19.4242 16.5678 20.6958 16.2446 22.1102C13.9803 22.1102 11.0143 22.1187 8.74999 22.1187C8.42677 20.7026 7.69106 19.4242 6.41785 18.0098C6.32142 17.9027 5.89643 17.4743 5.80357 17.3723C4.16071 15.5465 3.57143 14.3072 3.57143 11.9C3.57143 7.2063 7.56964 3.4 12.5 3.4ZM12.5 6.8C9.54107 6.8 7.14286 9.0831 7.14286 11.9C7.14286 12.8384 7.94286 13.6 8.92857 13.6C9.91429 13.6 10.7143 12.8384 10.7143 11.9C10.7143 10.9616 11.5143 10.2 12.5 10.2C13.4857 10.2 14.2857 9.4384 14.2857 8.5C14.2857 7.5616 13.4857 6.8 12.5 6.8ZM8.92857 25.5C11.1357 25.5 13.8643 25.5 16.0714 25.5V27.2C16.0714 29.0785 14.4732 30.6 12.5 30.6C10.5268 30.6 8.92857 29.0785 8.92857 27.2V25.5Z" fill="#0D4C81"/>
</svg>
